<mxfile host="app.diagrams.net" modified="2023-08-10T00:25:30.394Z" agent="Mozilla/5.0 (Windows NT 10.0; Win64; x64; rv:109.0) Gecko/20100101 Firefox/116.0" etag="9VGMdwdEKtCRGO21CHRT" version="21.6.7" type="device">
  <diagram name="Page-1" id="10a91c8b-09ff-31b1-d368-03940ed4cc9e">
    <mxGraphModel dx="2436" dy="1650" grid="1" gridSize="10" guides="1" tooltips="1" connect="1" arrows="1" fold="1" page="1" pageScale="1" pageWidth="700" pageHeight="800" background="none" math="0" shadow="0">
      <root>
        <mxCell id="0" />
        <mxCell id="1" parent="0" />
        <mxCell id="g5gsc5zSXnJuTT1IEkq8-1" value="&lt;font size=&quot;1&quot;&gt;&lt;b style=&quot;font-size: 20px&quot;&gt;Family Relationship Tree&amp;nbsp;&lt;/b&gt;&lt;/font&gt;" style="text;html=1;strokeColor=#36393d;fillColor=#8be5e8;align=center;verticalAlign=middle;whiteSpace=wrap;rounded=1;labelBorderColor=none;glass=0;sketch=0;shadow=1;" parent="1" vertex="1">
          <mxGeometry x="430" y="-30" width="460" height="107" as="geometry" />
        </mxCell>
        <mxCell id="g5gsc5zSXnJuTT1IEkq8-8" value="" style="edgeStyle=orthogonalEdgeStyle;rounded=0;orthogonalLoop=1;jettySize=auto;html=1;strokeColor=none;dashed=1;labelBackgroundColor=none;fontColor=default;" parent="1" source="g5gsc5zSXnJuTT1IEkq8-4" edge="1">
          <mxGeometry relative="1" as="geometry">
            <mxPoint x="680" y="140" as="targetPoint" />
          </mxGeometry>
        </mxCell>
        <mxCell id="g5gsc5zSXnJuTT1IEkq8-4" value="&lt;span style=&quot;text-align: left ; background-color: rgb(255 , 255 , 255)&quot;&gt;&lt;b&gt;&lt;font style=&quot;font-size: 15px&quot;&gt;Bulbul&lt;/font&gt;&lt;/b&gt;&lt;/span&gt;" style="rounded=1;whiteSpace=wrap;html=1;fillColor=#99e8a1;align=center;glass=0;sketch=0;shadow=1;strokeWidth=1.5;labelBackgroundColor=none;" parent="1" vertex="1">
          <mxGeometry x="580" y="120" width="80" height="40" as="geometry" />
        </mxCell>
        <mxCell id="g5gsc5zSXnJuTT1IEkq8-7" value="&lt;b&gt;&lt;font style=&quot;font-size: 15px&quot;&gt;Hiya&lt;/font&gt;&lt;/b&gt;" style="whiteSpace=wrap;html=1;rounded=1;dashed=1;strokeWidth=1;labelBackgroundColor=none;fillColor=#94c1e3;" parent="1" vertex="1">
          <mxGeometry x="691" y="120" width="77" height="40" as="geometry" />
        </mxCell>
        <mxCell id="g5gsc5zSXnJuTT1IEkq8-10" value="" style="edgeStyle=orthogonalEdgeStyle;rounded=0;orthogonalLoop=1;jettySize=auto;html=1;strokeColor=none;dashed=1;labelBackgroundColor=none;fontColor=default;" parent="1" edge="1">
          <mxGeometry relative="1" as="geometry">
            <mxPoint x="660" y="231" as="sourcePoint" />
            <mxPoint x="694" y="232" as="targetPoint" />
          </mxGeometry>
        </mxCell>
        <mxCell id="g5gsc5zSXnJuTT1IEkq8-18" value="" style="edgeStyle=orthogonalEdgeStyle;rounded=0;orthogonalLoop=1;jettySize=auto;html=1;strokeColor=none;dashed=1;fontStyle=1;fontSize=15;labelBackgroundColor=none;fontColor=default;" parent="1" edge="1">
          <mxGeometry relative="1" as="geometry">
            <mxPoint x="444" y="360" as="sourcePoint" />
            <mxPoint x="470" y="360" as="targetPoint" />
          </mxGeometry>
        </mxCell>
        <mxCell id="g5gsc5zSXnJuTT1IEkq8-26" value="" style="edgeStyle=orthogonalEdgeStyle;rounded=0;orthogonalLoop=1;jettySize=auto;html=1;strokeColor=none;dashed=1;fontStyle=1;fontSize=15;labelBackgroundColor=none;fontColor=default;" parent="1" edge="1">
          <mxGeometry relative="1" as="geometry">
            <mxPoint x="860" y="360" as="sourcePoint" />
            <mxPoint x="890" y="360" as="targetPoint" />
          </mxGeometry>
        </mxCell>
        <mxCell id="OCX1L0K20GJ4YsMpuFK3-7" value="" style="endArrow=classic;html=1;rounded=0;" edge="1" parent="1">
          <mxGeometry width="50" height="50" relative="1" as="geometry">
            <mxPoint x="670" y="139" as="sourcePoint" />
            <mxPoint x="670" y="199" as="targetPoint" />
          </mxGeometry>
        </mxCell>
        <mxCell id="OCX1L0K20GJ4YsMpuFK3-10" value="" style="line;strokeWidth=2;html=1;" vertex="1" parent="1">
          <mxGeometry x="160" y="199" width="650" height="10" as="geometry" />
        </mxCell>
        <mxCell id="OCX1L0K20GJ4YsMpuFK3-13" value="" style="edgeStyle=segmentEdgeStyle;endArrow=classic;html=1;curved=0;rounded=0;endSize=8;startSize=8;exitX=0;exitY=0.5;exitDx=0;exitDy=0;exitPerimeter=0;" edge="1" parent="1" source="OCX1L0K20GJ4YsMpuFK3-10">
          <mxGeometry width="50" height="50" relative="1" as="geometry">
            <mxPoint x="140" y="270" as="sourcePoint" />
            <mxPoint x="160" y="240" as="targetPoint" />
          </mxGeometry>
        </mxCell>
        <mxCell id="OCX1L0K20GJ4YsMpuFK3-14" value="&lt;span style=&quot;text-align: left ; background-color: rgb(255 , 255 , 255)&quot;&gt;&lt;b&gt;&lt;font style=&quot;font-size: 15px&quot;&gt;Tutul&lt;/font&gt;&lt;/b&gt;&lt;/span&gt;" style="rounded=1;whiteSpace=wrap;html=1;align=center;glass=0;sketch=0;shadow=1;strokeWidth=1.5;labelBackgroundColor=none;fillColor=#98ed8e;" vertex="1" parent="1">
          <mxGeometry x="130" y="240" width="80" height="40" as="geometry" />
        </mxCell>
        <mxCell id="OCX1L0K20GJ4YsMpuFK3-15" value="&lt;b&gt;&lt;font style=&quot;font-size: 15px&quot;&gt;Ela&lt;/font&gt;&lt;/b&gt;" style="whiteSpace=wrap;html=1;rounded=1;dashed=1;strokeWidth=1;labelBackgroundColor=none;fillColor=#94c1e3;" vertex="1" parent="1">
          <mxGeometry x="250" y="240" width="77" height="40" as="geometry" />
        </mxCell>
        <mxCell id="OCX1L0K20GJ4YsMpuFK3-18" value="" style="endArrow=none;dashed=1;html=1;rounded=0;exitX=1;exitY=0.5;exitDx=0;exitDy=0;" edge="1" parent="1" source="g5gsc5zSXnJuTT1IEkq8-4">
          <mxGeometry width="50" height="50" relative="1" as="geometry">
            <mxPoint x="641" y="190" as="sourcePoint" />
            <mxPoint x="691" y="140" as="targetPoint" />
          </mxGeometry>
        </mxCell>
        <mxCell id="OCX1L0K20GJ4YsMpuFK3-19" value="" style="endArrow=none;dashed=1;html=1;rounded=0;" edge="1" parent="1" source="OCX1L0K20GJ4YsMpuFK3-14">
          <mxGeometry width="50" height="50" relative="1" as="geometry">
            <mxPoint x="200" y="310" as="sourcePoint" />
            <mxPoint x="250" y="260" as="targetPoint" />
          </mxGeometry>
        </mxCell>
        <mxCell id="OCX1L0K20GJ4YsMpuFK3-20" value="&lt;span style=&quot;text-align: left ; background-color: rgb(255 , 255 , 255)&quot;&gt;&lt;b&gt;&lt;font style=&quot;font-size: 15px&quot;&gt;Mozammel&lt;/font&gt;&lt;/b&gt;&lt;/span&gt;" style="rounded=1;whiteSpace=wrap;html=1;align=center;glass=0;sketch=0;shadow=1;strokeWidth=1.5;labelBackgroundColor=none;fillColor=#98ed8e;" vertex="1" parent="1">
          <mxGeometry x="120" y="350" width="80" height="40" as="geometry" />
        </mxCell>
        <mxCell id="OCX1L0K20GJ4YsMpuFK3-21" value="&lt;b&gt;&lt;font style=&quot;font-size: 15px&quot;&gt;Nesa&lt;/font&gt;&lt;/b&gt;" style="whiteSpace=wrap;html=1;rounded=1;dashed=1;strokeWidth=1;labelBackgroundColor=none;fillColor=#94c1e3;" vertex="1" parent="1">
          <mxGeometry x="240" y="350" width="77" height="40" as="geometry" />
        </mxCell>
        <mxCell id="OCX1L0K20GJ4YsMpuFK3-22" value="&lt;span style=&quot;text-align: left ; background-color: rgb(255 , 255 , 255)&quot;&gt;&lt;b&gt;&lt;font style=&quot;font-size: 15px&quot;&gt;Azmol&lt;/font&gt;&lt;/b&gt;&lt;/span&gt;" style="rounded=1;whiteSpace=wrap;html=1;align=center;glass=0;sketch=0;shadow=1;strokeWidth=1.5;labelBackgroundColor=none;fillColor=#98ed8e;" vertex="1" parent="1">
          <mxGeometry x="370" y="350" width="80" height="40" as="geometry" />
        </mxCell>
        <mxCell id="OCX1L0K20GJ4YsMpuFK3-23" value="&lt;b&gt;&lt;font style=&quot;font-size: 15px&quot;&gt;Sobi&lt;/font&gt;&lt;/b&gt;" style="whiteSpace=wrap;html=1;rounded=1;dashed=1;strokeWidth=1;labelBackgroundColor=none;fillColor=#94c1e3;" vertex="1" parent="1">
          <mxGeometry x="540" y="350" width="77" height="40" as="geometry" />
        </mxCell>
        <mxCell id="OCX1L0K20GJ4YsMpuFK3-25" value="" style="endArrow=classic;html=1;rounded=0;" edge="1" parent="1">
          <mxGeometry width="50" height="50" relative="1" as="geometry">
            <mxPoint x="230" y="260" as="sourcePoint" />
            <mxPoint x="230" y="320" as="targetPoint" />
            <Array as="points" />
          </mxGeometry>
        </mxCell>
        <mxCell id="OCX1L0K20GJ4YsMpuFK3-26" value="" style="line;strokeWidth=2;html=1;" vertex="1" parent="1">
          <mxGeometry x="160" y="320" width="250" height="10" as="geometry" />
        </mxCell>
        <mxCell id="OCX1L0K20GJ4YsMpuFK3-37" value="" style="edgeStyle=segmentEdgeStyle;endArrow=classic;html=1;curved=0;rounded=0;endSize=8;startSize=8;exitX=0;exitY=0.5;exitDx=0;exitDy=0;exitPerimeter=0;entryX=0.5;entryY=0;entryDx=0;entryDy=0;" edge="1" parent="1" source="OCX1L0K20GJ4YsMpuFK3-26" target="OCX1L0K20GJ4YsMpuFK3-20">
          <mxGeometry width="50" height="50" relative="1" as="geometry">
            <mxPoint x="100" y="320" as="sourcePoint" />
            <mxPoint x="130" y="350" as="targetPoint" />
          </mxGeometry>
        </mxCell>
        <mxCell id="OCX1L0K20GJ4YsMpuFK3-39" value="" style="edgeStyle=segmentEdgeStyle;endArrow=classic;html=1;curved=0;rounded=0;endSize=8;startSize=8;exitX=0.954;exitY=0.5;exitDx=0;exitDy=0;exitPerimeter=0;" edge="1" parent="1" source="OCX1L0K20GJ4YsMpuFK3-26">
          <mxGeometry width="50" height="50" relative="1" as="geometry">
            <mxPoint x="710" y="330" as="sourcePoint" />
            <mxPoint x="410" y="350" as="targetPoint" />
          </mxGeometry>
        </mxCell>
        <mxCell id="OCX1L0K20GJ4YsMpuFK3-42" value="" style="endArrow=none;dashed=1;html=1;rounded=0;entryX=0;entryY=0.5;entryDx=0;entryDy=0;" edge="1" parent="1" source="OCX1L0K20GJ4YsMpuFK3-20" target="OCX1L0K20GJ4YsMpuFK3-21">
          <mxGeometry width="50" height="50" relative="1" as="geometry">
            <mxPoint x="190" y="380" as="sourcePoint" />
            <mxPoint x="240" y="330" as="targetPoint" />
          </mxGeometry>
        </mxCell>
        <mxCell id="OCX1L0K20GJ4YsMpuFK3-43" value="" style="endArrow=none;dashed=1;html=1;rounded=0;entryX=0;entryY=0.5;entryDx=0;entryDy=0;" edge="1" parent="1" target="OCX1L0K20GJ4YsMpuFK3-23">
          <mxGeometry width="50" height="50" relative="1" as="geometry">
            <mxPoint x="450" y="369.5" as="sourcePoint" />
            <mxPoint x="490" y="369.5" as="targetPoint" />
          </mxGeometry>
        </mxCell>
        <mxCell id="OCX1L0K20GJ4YsMpuFK3-44" value="&lt;span style=&quot;text-align: left ; background-color: rgb(255 , 255 , 255)&quot;&gt;&lt;b&gt;&lt;font style=&quot;font-size: 15px&quot;&gt;Sadi&lt;/font&gt;&lt;/b&gt;&lt;/span&gt;" style="rounded=1;whiteSpace=wrap;html=1;align=center;glass=0;sketch=0;shadow=1;strokeWidth=1.5;labelBackgroundColor=none;fillColor=#98ed8e;" vertex="1" parent="1">
          <mxGeometry x="150" y="440" width="80" height="40" as="geometry" />
        </mxCell>
        <mxCell id="OCX1L0K20GJ4YsMpuFK3-45" value="&lt;b&gt;&lt;font style=&quot;font-size: 15px&quot;&gt;Nazneen&lt;/font&gt;&lt;/b&gt;" style="whiteSpace=wrap;html=1;rounded=1;dashed=1;strokeWidth=1;labelBackgroundColor=none;fillColor=#94c1e3;" vertex="1" parent="1">
          <mxGeometry x="303" y="440" width="77" height="40" as="geometry" />
        </mxCell>
        <mxCell id="OCX1L0K20GJ4YsMpuFK3-46" value="&lt;span style=&quot;text-align: left ; background-color: rgb(255 , 255 , 255)&quot;&gt;&lt;b&gt;&lt;font style=&quot;font-size: 15px&quot;&gt;Kabir&lt;/font&gt;&lt;/b&gt;&lt;/span&gt;" style="rounded=1;whiteSpace=wrap;html=1;align=center;glass=0;sketch=0;shadow=1;strokeWidth=1.5;labelBackgroundColor=none;fillColor=#98ed8e;" vertex="1" parent="1">
          <mxGeometry x="450" y="440" width="80" height="40" as="geometry" />
        </mxCell>
        <mxCell id="OCX1L0K20GJ4YsMpuFK3-47" value="" style="endArrow=classic;html=1;rounded=0;entryX=0.375;entryY=-0.05;entryDx=0;entryDy=0;entryPerimeter=0;exitX=1;exitY=0.5;exitDx=0;exitDy=0;exitPerimeter=0;" edge="1" parent="1" source="OCX1L0K20GJ4YsMpuFK3-189" target="OCX1L0K20GJ4YsMpuFK3-46">
          <mxGeometry width="50" height="50" relative="1" as="geometry">
            <mxPoint x="480" y="370" as="sourcePoint" />
            <mxPoint x="480" y="430" as="targetPoint" />
            <Array as="points" />
          </mxGeometry>
        </mxCell>
        <mxCell id="OCX1L0K20GJ4YsMpuFK3-48" value="" style="endArrow=classic;html=1;rounded=0;entryX=0.375;entryY=0;entryDx=0;entryDy=0;entryPerimeter=0;exitX=0;exitY=0.5;exitDx=0;exitDy=0;exitPerimeter=0;" edge="1" parent="1" source="OCX1L0K20GJ4YsMpuFK3-189" target="OCX1L0K20GJ4YsMpuFK3-44">
          <mxGeometry width="50" height="50" relative="1" as="geometry">
            <mxPoint x="220" y="372" as="sourcePoint" />
            <mxPoint x="220" y="440" as="targetPoint" />
            <Array as="points" />
          </mxGeometry>
        </mxCell>
        <mxCell id="OCX1L0K20GJ4YsMpuFK3-49" value="" style="endArrow=none;dashed=1;html=1;rounded=0;exitX=1;exitY=0.5;exitDx=0;exitDy=0;" edge="1" parent="1" source="OCX1L0K20GJ4YsMpuFK3-44">
          <mxGeometry width="50" height="50" relative="1" as="geometry">
            <mxPoint x="267" y="459.5" as="sourcePoint" />
            <mxPoint x="300" y="460" as="targetPoint" />
          </mxGeometry>
        </mxCell>
        <mxCell id="OCX1L0K20GJ4YsMpuFK3-50" value="" style="endArrow=classic;html=1;rounded=0;entryX=0.5;entryY=0;entryDx=0;entryDy=0;" edge="1" parent="1">
          <mxGeometry width="50" height="50" relative="1" as="geometry">
            <mxPoint x="270" y="461" as="sourcePoint" />
            <mxPoint x="270.5" y="600.5" as="targetPoint" />
            <Array as="points" />
          </mxGeometry>
        </mxCell>
        <mxCell id="OCX1L0K20GJ4YsMpuFK3-57" value="" style="endArrow=classic;html=1;rounded=0;" edge="1" parent="1">
          <mxGeometry width="50" height="50" relative="1" as="geometry">
            <mxPoint x="420" y="525.5" as="sourcePoint" />
            <mxPoint x="420.00000000000045" y="525.5" as="targetPoint" />
            <Array as="points" />
          </mxGeometry>
        </mxCell>
        <mxCell id="OCX1L0K20GJ4YsMpuFK3-60" value="&lt;span style=&quot;text-align: left ; background-color: rgb(255 , 255 , 255)&quot;&gt;&lt;b&gt;&lt;font style=&quot;font-size: 15px&quot;&gt;Sadnan&lt;/font&gt;&lt;/b&gt;&lt;/span&gt;" style="rounded=1;whiteSpace=wrap;html=1;align=center;glass=0;sketch=0;shadow=1;strokeWidth=1.5;labelBackgroundColor=none;fillColor=#98ed8e;" vertex="1" parent="1">
          <mxGeometry x="230" y="600.5" width="80" height="40" as="geometry" />
        </mxCell>
        <mxCell id="OCX1L0K20GJ4YsMpuFK3-61" value="&lt;span style=&quot;text-align: left ; background-color: rgb(255 , 255 , 255)&quot;&gt;&lt;b&gt;&lt;font style=&quot;font-size: 15px&quot;&gt;Rafiq&lt;/font&gt;&lt;/b&gt;&lt;/span&gt;" style="rounded=1;whiteSpace=wrap;html=1;align=center;glass=0;sketch=0;shadow=1;strokeWidth=1.5;labelBackgroundColor=none;fillColor=#98ed8e;" vertex="1" parent="1">
          <mxGeometry x="470" y="599.5" width="80" height="40" as="geometry" />
        </mxCell>
        <mxCell id="OCX1L0K20GJ4YsMpuFK3-63" value="&lt;b&gt;&lt;font style=&quot;font-size: 15px&quot;&gt;Ruma&lt;/font&gt;&lt;/b&gt;" style="whiteSpace=wrap;html=1;rounded=1;dashed=1;strokeWidth=1;labelBackgroundColor=none;fillColor=#94c1e3;" vertex="1" parent="1">
          <mxGeometry x="600" y="600.5" width="77" height="40" as="geometry" />
        </mxCell>
        <mxCell id="OCX1L0K20GJ4YsMpuFK3-66" value="" style="endArrow=none;dashed=1;html=1;rounded=0;exitX=1;exitY=0.5;exitDx=0;exitDy=0;" edge="1" parent="1" source="OCX1L0K20GJ4YsMpuFK3-61">
          <mxGeometry width="50" height="50" relative="1" as="geometry">
            <mxPoint x="542.0000000000002" y="619.13" as="sourcePoint" />
            <mxPoint x="600" y="619.83" as="targetPoint" />
          </mxGeometry>
        </mxCell>
        <mxCell id="OCX1L0K20GJ4YsMpuFK3-70" value="" style="line;strokeWidth=2;html=1;" vertex="1" parent="1">
          <mxGeometry x="350" y="690" width="280" height="10" as="geometry" />
        </mxCell>
        <mxCell id="OCX1L0K20GJ4YsMpuFK3-71" value="" style="endArrow=classic;html=1;rounded=0;entryX=0.375;entryY=-0.05;entryDx=0;entryDy=0;entryPerimeter=0;exitX=0;exitY=0.5;exitDx=0;exitDy=0;exitPerimeter=0;" edge="1" parent="1" source="OCX1L0K20GJ4YsMpuFK3-70">
          <mxGeometry width="50" height="50" relative="1" as="geometry">
            <mxPoint x="350" y="690" as="sourcePoint" />
            <mxPoint x="350" y="758" as="targetPoint" />
            <Array as="points" />
          </mxGeometry>
        </mxCell>
        <mxCell id="OCX1L0K20GJ4YsMpuFK3-72" value="" style="endArrow=classic;html=1;rounded=0;exitX=1;exitY=0.5;exitDx=0;exitDy=0;exitPerimeter=0;entryX=0.5;entryY=0;entryDx=0;entryDy=0;entryPerimeter=0;" edge="1" parent="1" source="OCX1L0K20GJ4YsMpuFK3-70" target="OCX1L0K20GJ4YsMpuFK3-74">
          <mxGeometry width="50" height="50" relative="1" as="geometry">
            <mxPoint x="630" y="700" as="sourcePoint" />
            <mxPoint x="630" y="750" as="targetPoint" />
            <Array as="points" />
          </mxGeometry>
        </mxCell>
        <mxCell id="OCX1L0K20GJ4YsMpuFK3-73" value="&lt;span style=&quot;text-align: left ; background-color: rgb(255 , 255 , 255)&quot;&gt;&lt;b&gt;&lt;font style=&quot;font-size: 15px&quot;&gt;Sazzad&lt;/font&gt;&lt;/b&gt;&lt;/span&gt;" style="rounded=1;whiteSpace=wrap;html=1;align=center;glass=0;sketch=0;shadow=1;strokeWidth=1.5;labelBackgroundColor=none;fillColor=#98ed8e;" vertex="1" parent="1">
          <mxGeometry x="317" y="760" width="80" height="40" as="geometry" />
        </mxCell>
        <mxCell id="OCX1L0K20GJ4YsMpuFK3-74" value="&lt;span style=&quot;text-align: left ; background-color: rgb(255 , 255 , 255)&quot;&gt;&lt;b&gt;&lt;font style=&quot;font-size: 15px&quot;&gt;Shafin&lt;/font&gt;&lt;/b&gt;&lt;/span&gt;" style="rounded=1;whiteSpace=wrap;html=1;align=center;glass=0;sketch=0;shadow=1;strokeWidth=1.5;labelBackgroundColor=none;fillColor=#98ed8e;" vertex="1" parent="1">
          <mxGeometry x="590" y="760" width="80" height="40" as="geometry" />
        </mxCell>
        <mxCell id="OCX1L0K20GJ4YsMpuFK3-76" value="" style="endArrow=none;dashed=1;html=1;rounded=0;entryX=0;entryY=0.5;entryDx=0;entryDy=0;" edge="1" parent="1">
          <mxGeometry width="50" height="50" relative="1" as="geometry">
            <mxPoint x="397" y="779.5" as="sourcePoint" />
            <mxPoint x="447" y="780" as="targetPoint" />
          </mxGeometry>
        </mxCell>
        <mxCell id="OCX1L0K20GJ4YsMpuFK3-77" value="&lt;b&gt;&lt;font style=&quot;font-size: 15px&quot;&gt;Rahi&lt;/font&gt;&lt;/b&gt;" style="whiteSpace=wrap;html=1;rounded=1;dashed=1;strokeWidth=1;labelBackgroundColor=none;fillColor=#94c1e3;" vertex="1" parent="1">
          <mxGeometry x="441" y="760" width="77" height="40" as="geometry" />
        </mxCell>
        <mxCell id="OCX1L0K20GJ4YsMpuFK3-80" value="" style="endArrow=classic;html=1;rounded=0;exitX=0;exitY=0.5;exitDx=0;exitDy=0;exitPerimeter=0;entryX=0.5;entryY=0;entryDx=0;entryDy=0;" edge="1" parent="1" target="OCX1L0K20GJ4YsMpuFK3-81">
          <mxGeometry width="50" height="50" relative="1" as="geometry">
            <mxPoint x="420" y="780" as="sourcePoint" />
            <mxPoint x="420" y="849" as="targetPoint" />
            <Array as="points">
              <mxPoint x="419.5" y="829" />
            </Array>
          </mxGeometry>
        </mxCell>
        <mxCell id="OCX1L0K20GJ4YsMpuFK3-81" value="&lt;span style=&quot;text-align: left ; background-color: rgb(255 , 255 , 255)&quot;&gt;&lt;b&gt;&lt;font style=&quot;font-size: 15px&quot;&gt;Razin&lt;/font&gt;&lt;/b&gt;&lt;/span&gt;" style="rounded=1;whiteSpace=wrap;html=1;align=center;glass=0;sketch=0;shadow=1;strokeWidth=1.5;labelBackgroundColor=none;fillColor=#98ed8e;" vertex="1" parent="1">
          <mxGeometry x="380" y="920" width="80" height="40" as="geometry" />
        </mxCell>
        <mxCell id="OCX1L0K20GJ4YsMpuFK3-84" value="" style="endArrow=classic;html=1;rounded=0;exitX=1;exitY=0.5;exitDx=0;exitDy=0;exitPerimeter=0;" edge="1" parent="1" source="OCX1L0K20GJ4YsMpuFK3-10">
          <mxGeometry width="50" height="50" relative="1" as="geometry">
            <mxPoint x="810" y="207" as="sourcePoint" />
            <mxPoint x="810" y="238" as="targetPoint" />
            <Array as="points" />
          </mxGeometry>
        </mxCell>
        <mxCell id="OCX1L0K20GJ4YsMpuFK3-85" value="&lt;span style=&quot;text-align: left ; background-color: rgb(255 , 255 , 255)&quot;&gt;&lt;b&gt;&lt;font style=&quot;font-size: 15px&quot;&gt;Shwapon&lt;/font&gt;&lt;/b&gt;&lt;/span&gt;" style="rounded=1;whiteSpace=wrap;html=1;align=center;glass=0;sketch=0;shadow=1;strokeWidth=1.5;labelBackgroundColor=none;fillColor=#98ed8e;" vertex="1" parent="1">
          <mxGeometry x="1030" y="350" width="80" height="40" as="geometry" />
        </mxCell>
        <mxCell id="OCX1L0K20GJ4YsMpuFK3-86" value="&lt;b&gt;&lt;font style=&quot;font-size: 15px&quot;&gt;Sanchita&lt;/font&gt;&lt;/b&gt;" style="whiteSpace=wrap;html=1;rounded=1;dashed=1;strokeWidth=1;labelBackgroundColor=none;fillColor=#94c1e3;" vertex="1" parent="1">
          <mxGeometry x="900" y="240" width="77" height="40" as="geometry" />
        </mxCell>
        <mxCell id="OCX1L0K20GJ4YsMpuFK3-87" value="" style="endArrow=none;dashed=1;html=1;rounded=0;entryX=0;entryY=0.5;entryDx=0;entryDy=0;" edge="1" parent="1">
          <mxGeometry width="50" height="50" relative="1" as="geometry">
            <mxPoint x="850" y="259.5" as="sourcePoint" />
            <mxPoint x="900" y="260" as="targetPoint" />
          </mxGeometry>
        </mxCell>
        <mxCell id="OCX1L0K20GJ4YsMpuFK3-89" value="" style="endArrow=classic;html=1;rounded=0;" edge="1" parent="1">
          <mxGeometry width="50" height="50" relative="1" as="geometry">
            <mxPoint x="880" y="260" as="sourcePoint" />
            <mxPoint x="880" y="320" as="targetPoint" />
            <Array as="points" />
          </mxGeometry>
        </mxCell>
        <mxCell id="OCX1L0K20GJ4YsMpuFK3-119" style="edgeStyle=orthogonalEdgeStyle;rounded=0;orthogonalLoop=1;jettySize=auto;html=1;exitX=1;exitY=0.5;exitDx=0;exitDy=0;exitPerimeter=0;entryX=0.5;entryY=0;entryDx=0;entryDy=0;" edge="1" parent="1" source="OCX1L0K20GJ4YsMpuFK3-90" target="OCX1L0K20GJ4YsMpuFK3-85">
          <mxGeometry relative="1" as="geometry" />
        </mxCell>
        <mxCell id="OCX1L0K20GJ4YsMpuFK3-90" value="" style="line;strokeWidth=2;html=1;" vertex="1" parent="1">
          <mxGeometry x="770" y="320" width="298" height="10" as="geometry" />
        </mxCell>
        <mxCell id="OCX1L0K20GJ4YsMpuFK3-92" value="&lt;span style=&quot;text-align: left ; background-color: rgb(255 , 255 , 255)&quot;&gt;&lt;b&gt;&lt;font style=&quot;font-size: 15px&quot;&gt;Khorshed&lt;/font&gt;&lt;/b&gt;&lt;/span&gt;" style="rounded=1;whiteSpace=wrap;html=1;align=center;glass=0;sketch=0;shadow=1;strokeWidth=1.5;labelBackgroundColor=none;fillColor=#98ed8e;" vertex="1" parent="1">
          <mxGeometry x="730" y="350" width="80" height="40" as="geometry" />
        </mxCell>
        <mxCell id="OCX1L0K20GJ4YsMpuFK3-93" value="&lt;span style=&quot;text-align: left ; background-color: rgb(255 , 255 , 255)&quot;&gt;&lt;b&gt;&lt;font style=&quot;font-size: 15px&quot;&gt;Razzak&lt;/font&gt;&lt;/b&gt;&lt;/span&gt;" style="rounded=1;whiteSpace=wrap;html=1;align=center;glass=0;sketch=0;shadow=1;strokeWidth=1.5;labelBackgroundColor=none;fillColor=#98ed8e;" vertex="1" parent="1">
          <mxGeometry x="770" y="240" width="80" height="40" as="geometry" />
        </mxCell>
        <mxCell id="OCX1L0K20GJ4YsMpuFK3-94" value="&lt;b&gt;&lt;font style=&quot;font-size: 15px&quot;&gt;Tasneem&lt;/font&gt;&lt;/b&gt;" style="whiteSpace=wrap;html=1;rounded=1;dashed=1;strokeWidth=1;labelBackgroundColor=none;fillColor=#94c1e3;" vertex="1" parent="1">
          <mxGeometry x="1150" y="350" width="77" height="40" as="geometry" />
        </mxCell>
        <mxCell id="OCX1L0K20GJ4YsMpuFK3-95" value="&lt;b&gt;&lt;font style=&quot;font-size: 15px&quot;&gt;Shimu&lt;/font&gt;&lt;/b&gt;" style="whiteSpace=wrap;html=1;rounded=1;dashed=1;strokeWidth=1;labelBackgroundColor=none;fillColor=#94c1e3;" vertex="1" parent="1">
          <mxGeometry x="850" y="350" width="77" height="40" as="geometry" />
        </mxCell>
        <mxCell id="OCX1L0K20GJ4YsMpuFK3-96" value="" style="endArrow=none;dashed=1;html=1;rounded=0;" edge="1" parent="1">
          <mxGeometry width="50" height="50" relative="1" as="geometry">
            <mxPoint x="808" y="369.5" as="sourcePoint" />
            <mxPoint x="850" y="370" as="targetPoint" />
          </mxGeometry>
        </mxCell>
        <mxCell id="OCX1L0K20GJ4YsMpuFK3-105" value="" style="endArrow=classic;html=1;rounded=0;exitX=0;exitY=0.5;exitDx=0;exitDy=0;exitPerimeter=0;" edge="1" parent="1" source="OCX1L0K20GJ4YsMpuFK3-90">
          <mxGeometry width="50" height="50" relative="1" as="geometry">
            <mxPoint x="770" y="330" as="sourcePoint" />
            <mxPoint x="770" y="350" as="targetPoint" />
            <Array as="points" />
          </mxGeometry>
        </mxCell>
        <mxCell id="OCX1L0K20GJ4YsMpuFK3-114" value="" style="endArrow=none;dashed=1;html=1;rounded=0;" edge="1" parent="1">
          <mxGeometry width="50" height="50" relative="1" as="geometry">
            <mxPoint x="1110" y="369.5" as="sourcePoint" />
            <mxPoint x="1150" y="370" as="targetPoint" />
          </mxGeometry>
        </mxCell>
        <mxCell id="OCX1L0K20GJ4YsMpuFK3-120" value="" style="endArrow=classic;html=1;rounded=0;" edge="1" parent="1">
          <mxGeometry width="50" height="50" relative="1" as="geometry">
            <mxPoint x="830" y="370" as="sourcePoint" />
            <mxPoint x="830" y="430" as="targetPoint" />
            <Array as="points" />
          </mxGeometry>
        </mxCell>
        <mxCell id="OCX1L0K20GJ4YsMpuFK3-121" value="&lt;span style=&quot;text-align: left ; background-color: rgb(255 , 255 , 255)&quot;&gt;&lt;b&gt;&lt;font style=&quot;font-size: 15px&quot;&gt;Raheek&lt;/font&gt;&lt;/b&gt;&lt;/span&gt;" style="rounded=1;whiteSpace=wrap;html=1;align=center;glass=0;sketch=0;shadow=1;strokeWidth=1.5;labelBackgroundColor=none;fillColor=#98ed8e;" vertex="1" parent="1">
          <mxGeometry x="790" y="430" width="80" height="40" as="geometry" />
        </mxCell>
        <mxCell id="OCX1L0K20GJ4YsMpuFK3-124" value="" style="endArrow=none;dashed=1;html=1;rounded=0;entryX=0;entryY=0.5;entryDx=0;entryDy=0;" edge="1" parent="1">
          <mxGeometry width="50" height="50" relative="1" as="geometry">
            <mxPoint x="870" y="450" as="sourcePoint" />
            <mxPoint x="920" y="450.5" as="targetPoint" />
          </mxGeometry>
        </mxCell>
        <mxCell id="OCX1L0K20GJ4YsMpuFK3-125" value="&lt;b&gt;&lt;font style=&quot;font-size: 15px&quot;&gt;Urmi&lt;/font&gt;&lt;/b&gt;" style="whiteSpace=wrap;html=1;rounded=1;dashed=1;strokeWidth=1;labelBackgroundColor=none;fillColor=#94c1e3;" vertex="1" parent="1">
          <mxGeometry x="900" y="430" width="77" height="40" as="geometry" />
        </mxCell>
        <mxCell id="OCX1L0K20GJ4YsMpuFK3-128" value="" style="line;strokeWidth=2;html=1;" vertex="1" parent="1">
          <mxGeometry x="720" y="525.5" width="298" height="10" as="geometry" />
        </mxCell>
        <mxCell id="OCX1L0K20GJ4YsMpuFK3-130" value="" style="endArrow=classic;html=1;rounded=0;entryX=0.564;entryY=0.15;entryDx=0;entryDy=0;entryPerimeter=0;" edge="1" parent="1" target="OCX1L0K20GJ4YsMpuFK3-128">
          <mxGeometry width="50" height="50" relative="1" as="geometry">
            <mxPoint x="888" y="450" as="sourcePoint" />
            <mxPoint x="888" y="510" as="targetPoint" />
            <Array as="points" />
          </mxGeometry>
        </mxCell>
        <mxCell id="OCX1L0K20GJ4YsMpuFK3-131" value="" style="endArrow=classic;html=1;rounded=0;exitX=0;exitY=0.5;exitDx=0;exitDy=0;exitPerimeter=0;" edge="1" parent="1" source="OCX1L0K20GJ4YsMpuFK3-128">
          <mxGeometry width="50" height="50" relative="1" as="geometry">
            <mxPoint x="720" y="540" as="sourcePoint" />
            <mxPoint x="720" y="600" as="targetPoint" />
            <Array as="points" />
          </mxGeometry>
        </mxCell>
        <mxCell id="OCX1L0K20GJ4YsMpuFK3-132" value="&lt;span style=&quot;text-align: left ; background-color: rgb(255 , 255 , 255)&quot;&gt;&lt;b&gt;&lt;font style=&quot;font-size: 15px&quot;&gt;Asif&lt;/font&gt;&lt;/b&gt;&lt;/span&gt;" style="rounded=1;whiteSpace=wrap;html=1;align=center;glass=0;sketch=0;shadow=1;strokeWidth=1.5;labelBackgroundColor=none;fillColor=#98ed8e;" vertex="1" parent="1">
          <mxGeometry x="689.5" y="600" width="80" height="40" as="geometry" />
        </mxCell>
        <mxCell id="OCX1L0K20GJ4YsMpuFK3-133" value="&lt;b&gt;&lt;font style=&quot;font-size: 15px&quot;&gt;Rimi&lt;/font&gt;&lt;/b&gt;" style="whiteSpace=wrap;html=1;rounded=1;dashed=1;strokeWidth=1;labelBackgroundColor=none;fillColor=#94c1e3;" vertex="1" parent="1">
          <mxGeometry x="810" y="600" width="77" height="40" as="geometry" />
        </mxCell>
        <mxCell id="OCX1L0K20GJ4YsMpuFK3-134" value="" style="endArrow=classic;html=1;rounded=0;exitX=0;exitY=0.5;exitDx=0;exitDy=0;exitPerimeter=0;" edge="1" parent="1">
          <mxGeometry width="50" height="50" relative="1" as="geometry">
            <mxPoint x="1018" y="531" as="sourcePoint" />
            <mxPoint x="1018" y="600" as="targetPoint" />
            <Array as="points" />
          </mxGeometry>
        </mxCell>
        <mxCell id="OCX1L0K20GJ4YsMpuFK3-135" value="&lt;span style=&quot;text-align: left ; background-color: rgb(255 , 255 , 255)&quot;&gt;&lt;b&gt;&lt;font style=&quot;font-size: 15px&quot;&gt;Nisho&lt;/font&gt;&lt;/b&gt;&lt;/span&gt;" style="rounded=1;whiteSpace=wrap;html=1;align=center;glass=0;sketch=0;shadow=1;strokeWidth=1.5;labelBackgroundColor=none;fillColor=#98ed8e;" vertex="1" parent="1">
          <mxGeometry x="970" y="600" width="80" height="40" as="geometry" />
        </mxCell>
        <mxCell id="OCX1L0K20GJ4YsMpuFK3-136" value="&lt;b&gt;&lt;font style=&quot;font-size: 15px&quot;&gt;Raka&lt;/font&gt;&lt;/b&gt;" style="whiteSpace=wrap;html=1;rounded=1;dashed=1;strokeWidth=1;labelBackgroundColor=none;fillColor=#94c1e3;" vertex="1" parent="1">
          <mxGeometry x="1080" y="600" width="77" height="40" as="geometry" />
        </mxCell>
        <mxCell id="OCX1L0K20GJ4YsMpuFK3-137" value="" style="endArrow=none;dashed=1;html=1;rounded=0;" edge="1" parent="1">
          <mxGeometry width="50" height="50" relative="1" as="geometry">
            <mxPoint x="768" y="619.5" as="sourcePoint" />
            <mxPoint x="810" y="620" as="targetPoint" />
          </mxGeometry>
        </mxCell>
        <mxCell id="OCX1L0K20GJ4YsMpuFK3-138" value="" style="endArrow=none;dashed=1;html=1;rounded=0;" edge="1" parent="1">
          <mxGeometry width="50" height="50" relative="1" as="geometry">
            <mxPoint x="1049" y="619.5" as="sourcePoint" />
            <mxPoint x="1080" y="620" as="targetPoint" />
          </mxGeometry>
        </mxCell>
        <mxCell id="OCX1L0K20GJ4YsMpuFK3-139" value="" style="endArrow=classic;html=1;rounded=0;" edge="1" parent="1">
          <mxGeometry width="50" height="50" relative="1" as="geometry">
            <mxPoint x="790" y="620" as="sourcePoint" />
            <mxPoint x="790" y="760" as="targetPoint" />
            <Array as="points" />
          </mxGeometry>
        </mxCell>
        <mxCell id="OCX1L0K20GJ4YsMpuFK3-140" value="&lt;span style=&quot;text-align: left ; background-color: rgb(255 , 255 , 255)&quot;&gt;&lt;b&gt;&lt;font style=&quot;font-size: 15px&quot;&gt;Prince&lt;/font&gt;&lt;/b&gt;&lt;/span&gt;" style="rounded=1;whiteSpace=wrap;html=1;align=center;glass=0;sketch=0;shadow=1;strokeWidth=1.5;labelBackgroundColor=none;fillColor=#98ed8e;" vertex="1" parent="1">
          <mxGeometry x="750" y="760" width="80" height="40" as="geometry" />
        </mxCell>
        <mxCell id="OCX1L0K20GJ4YsMpuFK3-142" value="" style="endArrow=classic;html=1;rounded=0;" edge="1" parent="1">
          <mxGeometry width="50" height="50" relative="1" as="geometry">
            <mxPoint x="1068" y="620" as="sourcePoint" />
            <mxPoint x="1068" y="760" as="targetPoint" />
            <Array as="points" />
          </mxGeometry>
        </mxCell>
        <mxCell id="OCX1L0K20GJ4YsMpuFK3-143" value="&lt;b&gt;&lt;font style=&quot;font-size: 15px&quot;&gt;Totini&lt;/font&gt;&lt;/b&gt;" style="whiteSpace=wrap;html=1;rounded=1;dashed=1;strokeWidth=1;labelBackgroundColor=none;fillColor=#94c1e3;" vertex="1" parent="1">
          <mxGeometry x="870" y="760" width="77" height="40" as="geometry" />
        </mxCell>
        <mxCell id="OCX1L0K20GJ4YsMpuFK3-144" value="" style="endArrow=none;dashed=1;html=1;rounded=0;" edge="1" parent="1">
          <mxGeometry width="50" height="50" relative="1" as="geometry">
            <mxPoint x="830" y="779.5" as="sourcePoint" />
            <mxPoint x="870" y="780" as="targetPoint" />
          </mxGeometry>
        </mxCell>
        <mxCell id="OCX1L0K20GJ4YsMpuFK3-145" value="" style="endArrow=classic;html=1;rounded=0;entryX=0.393;entryY=0.011;entryDx=0;entryDy=0;entryPerimeter=0;" edge="1" parent="1" target="OCX1L0K20GJ4YsMpuFK3-146">
          <mxGeometry width="50" height="50" relative="1" as="geometry">
            <mxPoint x="850" y="780" as="sourcePoint" />
            <mxPoint x="850" y="850" as="targetPoint" />
            <Array as="points" />
          </mxGeometry>
        </mxCell>
        <mxCell id="OCX1L0K20GJ4YsMpuFK3-146" value="&lt;span style=&quot;text-align: left ; background-color: rgb(255 , 255 , 255)&quot;&gt;&lt;b&gt;&lt;font style=&quot;font-size: 15px&quot;&gt;Nazmul&lt;/font&gt;&lt;/b&gt;&lt;/span&gt;" style="rounded=1;whiteSpace=wrap;html=1;align=center;glass=0;sketch=0;shadow=1;strokeWidth=1.5;labelBackgroundColor=none;fillColor=#98ed8e;" vertex="1" parent="1">
          <mxGeometry x="820" y="920" width="80" height="40" as="geometry" />
        </mxCell>
        <mxCell id="OCX1L0K20GJ4YsMpuFK3-147" value="&lt;span style=&quot;text-align: left ; background-color: rgb(255 , 255 , 255)&quot;&gt;&lt;b&gt;&lt;font style=&quot;font-size: 15px&quot;&gt;Nipun&lt;/font&gt;&lt;/b&gt;&lt;/span&gt;" style="rounded=1;whiteSpace=wrap;html=1;align=center;glass=0;sketch=0;shadow=1;strokeWidth=1.5;labelBackgroundColor=none;fillColor=#98ed8e;" vertex="1" parent="1">
          <mxGeometry x="1018" y="760" width="80" height="40" as="geometry" />
        </mxCell>
        <mxCell id="OCX1L0K20GJ4YsMpuFK3-151" value="&lt;b&gt;&lt;font style=&quot;font-size: 15px&quot;&gt;Mousumi&lt;/font&gt;&lt;/b&gt;" style="whiteSpace=wrap;html=1;rounded=1;dashed=1;strokeWidth=1;labelBackgroundColor=none;fillColor=#94c1e3;" vertex="1" parent="1">
          <mxGeometry x="1157" y="760" width="77" height="40" as="geometry" />
        </mxCell>
        <mxCell id="OCX1L0K20GJ4YsMpuFK3-152" value="" style="endArrow=none;dashed=1;html=1;rounded=0;entryX=0.039;entryY=0.5;entryDx=0;entryDy=0;entryPerimeter=0;" edge="1" parent="1" target="OCX1L0K20GJ4YsMpuFK3-151">
          <mxGeometry width="50" height="50" relative="1" as="geometry">
            <mxPoint x="1100" y="780" as="sourcePoint" />
            <mxPoint x="1150" y="780" as="targetPoint" />
          </mxGeometry>
        </mxCell>
        <mxCell id="OCX1L0K20GJ4YsMpuFK3-154" value="&lt;span style=&quot;text-align: left ; background-color: rgb(255 , 255 , 255)&quot;&gt;&lt;b&gt;&lt;font style=&quot;font-size: 15px&quot;&gt;Shakib&lt;/font&gt;&lt;/b&gt;&lt;/span&gt;" style="rounded=1;whiteSpace=wrap;html=1;align=center;glass=0;sketch=0;shadow=1;strokeWidth=1.5;labelBackgroundColor=none;fillColor=#98ed8e;" vertex="1" parent="1">
          <mxGeometry x="1080" y="920" width="80" height="40" as="geometry" />
        </mxCell>
        <mxCell id="OCX1L0K20GJ4YsMpuFK3-155" value="" style="endArrow=classic;html=1;rounded=0;entryX=0.5;entryY=0;entryDx=0;entryDy=0;" edge="1" parent="1" target="OCX1L0K20GJ4YsMpuFK3-156">
          <mxGeometry width="50" height="50" relative="1" as="geometry">
            <mxPoint x="1130" y="373" as="sourcePoint" />
            <mxPoint x="1130" y="450" as="targetPoint" />
            <Array as="points" />
          </mxGeometry>
        </mxCell>
        <mxCell id="OCX1L0K20GJ4YsMpuFK3-156" value="&lt;span style=&quot;text-align: left ; background-color: rgb(255 , 255 , 255)&quot;&gt;&lt;b&gt;&lt;font style=&quot;font-size: 15px&quot;&gt;Apurba&lt;/font&gt;&lt;/b&gt;&lt;/span&gt;" style="rounded=1;whiteSpace=wrap;html=1;align=center;glass=0;sketch=0;shadow=1;strokeWidth=1.5;labelBackgroundColor=none;fillColor=#98ed8e;" vertex="1" parent="1">
          <mxGeometry x="1090" y="430" width="80" height="40" as="geometry" />
        </mxCell>
        <mxCell id="OCX1L0K20GJ4YsMpuFK3-157" value="&lt;b&gt;&lt;font style=&quot;font-size: 15px&quot;&gt;Mouri&lt;/font&gt;&lt;/b&gt;" style="whiteSpace=wrap;html=1;rounded=1;dashed=1;strokeWidth=1;labelBackgroundColor=none;fillColor=#94c1e3;" vertex="1" parent="1">
          <mxGeometry x="1227" y="430" width="77" height="40" as="geometry" />
        </mxCell>
        <mxCell id="OCX1L0K20GJ4YsMpuFK3-160" value="" style="endArrow=none;dashed=1;html=1;rounded=0;" edge="1" parent="1">
          <mxGeometry width="50" height="50" relative="1" as="geometry">
            <mxPoint x="1170" y="449.5" as="sourcePoint" />
            <mxPoint x="1230" y="450" as="targetPoint" />
          </mxGeometry>
        </mxCell>
        <mxCell id="OCX1L0K20GJ4YsMpuFK3-161" value="" style="endArrow=classic;html=1;rounded=0;entryX=0.25;entryY=0;entryDx=0;entryDy=0;" edge="1" parent="1" target="OCX1L0K20GJ4YsMpuFK3-162">
          <mxGeometry width="50" height="50" relative="1" as="geometry">
            <mxPoint x="1210" y="450" as="sourcePoint" />
            <mxPoint x="1210" y="518" as="targetPoint" />
            <Array as="points" />
          </mxGeometry>
        </mxCell>
        <mxCell id="OCX1L0K20GJ4YsMpuFK3-162" value="&lt;span style=&quot;text-align: left ; background-color: rgb(255 , 255 , 255)&quot;&gt;&lt;b&gt;&lt;font style=&quot;font-size: 15px&quot;&gt;Bodrul&lt;/font&gt;&lt;/b&gt;&lt;/span&gt;" style="rounded=1;whiteSpace=wrap;html=1;align=center;glass=0;sketch=0;shadow=1;strokeWidth=1.5;labelBackgroundColor=none;fillColor=#98ed8e;" vertex="1" parent="1">
          <mxGeometry x="1190" y="600" width="80" height="40" as="geometry" />
        </mxCell>
        <mxCell id="OCX1L0K20GJ4YsMpuFK3-163" value="&lt;b&gt;&lt;font style=&quot;font-size: 15px&quot;&gt;Sumi&lt;/font&gt;&lt;/b&gt;" style="whiteSpace=wrap;html=1;rounded=1;dashed=1;strokeWidth=1;labelBackgroundColor=none;fillColor=#94c1e3;" vertex="1" parent="1">
          <mxGeometry x="1340" y="600" width="77" height="40" as="geometry" />
        </mxCell>
        <mxCell id="OCX1L0K20GJ4YsMpuFK3-165" value="" style="endArrow=classic;html=1;rounded=0;" edge="1" parent="1">
          <mxGeometry width="50" height="50" relative="1" as="geometry">
            <mxPoint x="1310" y="620" as="sourcePoint" />
            <mxPoint x="1310" y="760" as="targetPoint" />
            <Array as="points" />
          </mxGeometry>
        </mxCell>
        <mxCell id="OCX1L0K20GJ4YsMpuFK3-166" value="&lt;span style=&quot;text-align: left ; background-color: rgb(255 , 255 , 255)&quot;&gt;&lt;b&gt;&lt;font style=&quot;font-size: 15px&quot;&gt;Nowshad&lt;/font&gt;&lt;/b&gt;&lt;/span&gt;" style="rounded=1;whiteSpace=wrap;html=1;align=center;glass=0;sketch=0;shadow=1;strokeWidth=1.5;labelBackgroundColor=none;fillColor=#98ed8e;" vertex="1" parent="1">
          <mxGeometry x="1270" y="760" width="80" height="40" as="geometry" />
        </mxCell>
        <mxCell id="OCX1L0K20GJ4YsMpuFK3-168" value="&lt;b&gt;&lt;font style=&quot;font-size: 15px&quot;&gt;Jasmine&lt;/font&gt;&lt;/b&gt;" style="whiteSpace=wrap;html=1;rounded=1;dashed=1;strokeWidth=1;labelBackgroundColor=none;fillColor=#94c1e3;" vertex="1" parent="1">
          <mxGeometry x="1410" y="760" width="77" height="40" as="geometry" />
        </mxCell>
        <mxCell id="OCX1L0K20GJ4YsMpuFK3-169" value="" style="endArrow=none;dashed=1;html=1;rounded=0;entryX=0;entryY=0.5;entryDx=0;entryDy=0;" edge="1" parent="1" target="OCX1L0K20GJ4YsMpuFK3-163">
          <mxGeometry width="50" height="50" relative="1" as="geometry">
            <mxPoint x="1270" y="619.5" as="sourcePoint" />
            <mxPoint x="1330" y="620" as="targetPoint" />
          </mxGeometry>
        </mxCell>
        <mxCell id="OCX1L0K20GJ4YsMpuFK3-170" value="" style="endArrow=none;dashed=1;html=1;rounded=0;" edge="1" parent="1">
          <mxGeometry width="50" height="50" relative="1" as="geometry">
            <mxPoint x="1350" y="779.5" as="sourcePoint" />
            <mxPoint x="1410" y="780" as="targetPoint" />
          </mxGeometry>
        </mxCell>
        <mxCell id="OCX1L0K20GJ4YsMpuFK3-173" value="&lt;span style=&quot;text-align: left ; background-color: rgb(255 , 255 , 255)&quot;&gt;&lt;b&gt;&lt;font style=&quot;font-size: 15px&quot;&gt;Sojol&lt;/font&gt;&lt;/b&gt;&lt;/span&gt;" style="rounded=1;whiteSpace=wrap;html=1;align=center;glass=0;sketch=0;shadow=1;strokeWidth=1.5;labelBackgroundColor=none;fillColor=#98ed8e;" vertex="1" parent="1">
          <mxGeometry x="1340" y="920" width="80" height="40" as="geometry" />
        </mxCell>
        <mxCell id="OCX1L0K20GJ4YsMpuFK3-178" value="" style="endArrow=classic;html=1;rounded=0;entryX=0.393;entryY=0.011;entryDx=0;entryDy=0;entryPerimeter=0;" edge="1" parent="1">
          <mxGeometry width="50" height="50" relative="1" as="geometry">
            <mxPoint x="1117.79" y="780" as="sourcePoint" />
            <mxPoint x="1118.79" y="920" as="targetPoint" />
            <Array as="points" />
          </mxGeometry>
        </mxCell>
        <mxCell id="OCX1L0K20GJ4YsMpuFK3-179" value="" style="endArrow=classic;html=1;rounded=0;entryX=0.393;entryY=0.011;entryDx=0;entryDy=0;entryPerimeter=0;" edge="1" parent="1">
          <mxGeometry width="50" height="50" relative="1" as="geometry">
            <mxPoint x="1379.29" y="780" as="sourcePoint" />
            <mxPoint x="1380.29" y="920" as="targetPoint" />
            <Array as="points" />
          </mxGeometry>
        </mxCell>
        <mxCell id="OCX1L0K20GJ4YsMpuFK3-186" value="&lt;b&gt;&lt;font style=&quot;font-size: 15px&quot;&gt;Zina&lt;/font&gt;&lt;/b&gt;" style="whiteSpace=wrap;html=1;rounded=1;dashed=1;strokeWidth=1;labelBackgroundColor=none;fillColor=#94c1e3;" vertex="1" parent="1">
          <mxGeometry x="570" y="440" width="77" height="40" as="geometry" />
        </mxCell>
        <mxCell id="OCX1L0K20GJ4YsMpuFK3-187" value="" style="endArrow=none;dashed=1;html=1;rounded=0;entryX=0;entryY=0.5;entryDx=0;entryDy=0;exitX=1;exitY=0.5;exitDx=0;exitDy=0;" edge="1" parent="1" source="OCX1L0K20GJ4YsMpuFK3-46">
          <mxGeometry width="50" height="50" relative="1" as="geometry">
            <mxPoint x="520" y="459.7" as="sourcePoint" />
            <mxPoint x="570" y="460.2" as="targetPoint" />
          </mxGeometry>
        </mxCell>
        <mxCell id="OCX1L0K20GJ4YsMpuFK3-189" value="" style="line;strokeWidth=2;html=1;" vertex="1" parent="1">
          <mxGeometry x="180" y="400" width="300" height="10" as="geometry" />
        </mxCell>
        <mxCell id="OCX1L0K20GJ4YsMpuFK3-191" value="" style="endArrow=classic;html=1;rounded=0;" edge="1" parent="1">
          <mxGeometry width="50" height="50" relative="1" as="geometry">
            <mxPoint x="220" y="370" as="sourcePoint" />
            <mxPoint x="220" y="400" as="targetPoint" />
            <Array as="points" />
          </mxGeometry>
        </mxCell>
        <mxCell id="OCX1L0K20GJ4YsMpuFK3-200" value="" style="endArrow=classic;html=1;rounded=0;entryX=0.875;entryY=0.001;entryDx=0;entryDy=0;entryPerimeter=0;" edge="1" parent="1">
          <mxGeometry width="50" height="50" relative="1" as="geometry">
            <mxPoint x="540" y="459.96" as="sourcePoint" />
            <mxPoint x="540" y="599.4999999999998" as="targetPoint" />
            <Array as="points" />
          </mxGeometry>
        </mxCell>
        <mxCell id="OCX1L0K20GJ4YsMpuFK3-201" value="" style="endArrow=classic;html=1;rounded=0;entryX=0.813;entryY=0.25;entryDx=0;entryDy=0;entryPerimeter=0;" edge="1" parent="1" target="OCX1L0K20GJ4YsMpuFK3-70">
          <mxGeometry width="50" height="50" relative="1" as="geometry">
            <mxPoint x="578.25" y="620" as="sourcePoint" />
            <mxPoint x="578.55" y="670.5" as="targetPoint" />
            <Array as="points" />
          </mxGeometry>
        </mxCell>
      </root>
    </mxGraphModel>
  </diagram>
</mxfile>
